<svg xmlns="http://www.w3.org/2000/svg" viewBox="0 0 25 25"><defs><style>.cls-1{fill:#231f20;}</style></defs><g id="sleep"><path class="cls-1" d="M13.5,12H5.34L13.42,2a.61.61,0,0,0,.08-.66A.63.63,0,0,0,12.93,1H4.5a.5.5,0,0,0,0,1h7.66L4.08,12a.61.61,0,0,0-.08.66.63.63,0,0,0,.57.36H13.5a.5.5,0,0,0,0-1Z"/><path class="cls-1" d="M13.05,16.35a.62.62,0,0,0-.56-.35h-5a.5.5,0,0,0,0,1h4.23L7.07,23a.63.63,0,0,0,.5,1H12.5a.5.5,0,0,0,0-1H8.33L13,17A.61.61,0,0,0,13.05,16.35Z"/><path class="cls-1" d="M22.41,9.35A.62.62,0,0,0,21.85,9H15.5a.5.5,0,0,0,0,1h5.59l-6.21,8a.63.63,0,0,0-.07.67.64.64,0,0,0,.57.35H21.5a.5.5,0,0,0,0-1H16.13l6.22-8A.63.63,0,0,0,22.41,9.35Z"/></g></svg>